<svg xmlns="http://www.w3.org/2000/svg" xmlns:xlink="http://www.w3.org/1999/xlink" width="45" height="38" version="1.1" viewBox="0 0 45 38"><title>scaladex-brand</title><desc>Created with Sketch.</desc><g id="UI-Design" fill="none" fill-rule="evenodd" stroke="none" stroke-width="1"><g id="Assets" transform="translate(-112.000000, -76.000000)"><g id="scaladex-brand" transform="translate(112.000000, 79.000000)"><path id="Icon" fill="#F26527" d="M11,3 L28,3 L28,0 L9,0 L0.0299987793,16.5 L9,32.933038 L9,33 L28,33 L28,30 L11.0689068,30 L3.81280518,16.5000005 L11,3 Z M13,9 L32,9 L32,12 L13,12 L13,9 Z M13,15 L24,15 L24,18 L13,18 L13,15 Z M13,21 L28,21 L28,24 L13,24 L13,21 Z"/></g></g></g></svg>